<svg xmlns="http://www.w3.org/2000/svg" width="71.034" height="70.564" viewBox="0 0 71.034 70.564"><g transform="translate(0 -0.187)"><path d="M34.685,23.452s15.506-9.192,25.351,3.8c0,0,2.553,2.953.591,5.779-1.931,2.779-6.242,2.189-8.388-.758C50.3,29.613,45.638,26.24,34.685,23.452Z" transform="translate(8.893 5.156)" fill="#88c057"/><path d="M37.32,28.286s9.43-15.268-2.695-24.25c0,0-4-3.6-7.616-2.317-3.362,1.19-3.45,5.877-.357,7.65C30.042,11.313,34.686,16.168,37.32,28.286Z" transform="translate(6.258 0.322)" fill="#88c057"/><path d="M59.548,28.834s.084.108.195.258a7.4,7.4,0,0,0,.92-.965c2.618-3.355.52-5.95.52-5.95C53.411,10.484,35.321,23.19,35.321,23.19c.871.06,1.685.138,2.473.221C42.966,21.524,52.645,19.728,59.548,28.834Z" transform="translate(9.056 4.37)" fill="#88c057"/><path d="M33.267,4.358c9.354,6.928,5.881,17.592,3.8,22.107,0,.1.011.193.015.3,0,0,12.909-17.886,1.954-24.922,0,0-3.492-2.986-7.537-.93a6.76,6.76,0,0,0-1.794,1.327A12.424,12.424,0,0,1,33.267,4.358Z" transform="translate(7.617 0)" fill="#a4e869"/><path d="M54.5,6.338c-4.582-2.969-10.4,1.514-10.4,1.514a34.5,34.5,0,0,0-2.648,3.677c-.8,5.841-4.607,12.154-6.5,14.994-.112.395-.206.74-.271.989,2.192-1.472,8.579-5.457,14.856-6.488a31.692,31.692,0,0,0,4.336-3.4C60.806,11.028,54.5,6.338,54.5,6.338Z" transform="translate(8.893 1.317)" fill="#659c35"/><path d="M34.685,23.452s15.506-9.192,25.351,3.8c0,0,2.553,2.953.591,5.779-1.931,2.779-6.242,2.189-8.388-.758C50.3,29.613,45.638,26.24,34.685,23.452Z" transform="translate(8.893 5.156)" fill="#a4e869"/><g transform="translate(0 18.016)"><path d="M35.5,21.7c-.353.687-.593,1.077-.593,1.077s.588-.347,1.6-.808C36.174,21.879,35.844,21.79,35.5,21.7Z" transform="translate(8.949 -12.5)" fill="#f2681c"/><path d="M52.528,31.841a7.4,7.4,0,0,0,.166-4.308,62.972,62.972,0,0,0-8.841-2.877A47.058,47.058,0,0,0,40.711,14.9a7.708,7.708,0,0,0-5.239-.121C29.786,16.826,4.787,52.795.112,65.336A1.236,1.236,0,0,0,1.776,67C14.318,62.326,50.485,37.525,52.528,31.841Z" transform="translate(0 -14.378)" fill="#ed8f20"/></g><g transform="translate(5.903 25.015)"><path d="M9.143,47.206A15.328,15.328,0,0,1,6.7,45.739a1.256,1.256,0,1,0-1.485,2.025A17.742,17.742,0,0,0,8.06,49.473a1.256,1.256,0,1,0,1.083-2.267Z" transform="translate(-4.699 -13.398)" fill="#dd7017"/><path d="M41.059,28.982a17.751,17.751,0,0,1-7.089-5.235,1.256,1.256,0,1,0-1.91,1.633,20.228,20.228,0,0,0,8.1,5.952,1.257,1.257,0,0,0,.895-2.349Z" transform="translate(2.239 -19.087)" fill="#dd7017"/><g transform="translate(21.156)"><path d="M23.026,19.948a1.256,1.256,0,0,1,.94,1.073,8.913,8.913,0,0,0,3.147,6.021,1.257,1.257,0,0,1-1.45,2.053,11.255,11.255,0,0,1-4.126-7.346" transform="translate(-21.537 -19.948)" fill="#dd7017"/><path d="M25.663,29.095a1.257,1.257,0,0,0,1.45-2.053,8.923,8.923,0,0,1-3.147-6.021,1.257,1.257,0,0,0-.94-1.073c-.484.574-.979,1.17-1.489,1.8A11.254,11.254,0,0,0,25.663,29.095Z" transform="translate(-21.537 -19.948)" fill="#dd7017"/></g><g transform="translate(24.762 17.316)"><path d="M31.871,39.821a11.225,11.225,0,0,1-7.234-4.11,1.257,1.257,0,1,1,2.054-1.449,8.923,8.923,0,0,0,6.021,3.147,1.244,1.244,0,0,1,1.075.983" transform="translate(-24.407 -33.73)" fill="#dd7017"/><path d="M32.713,37.41a8.913,8.913,0,0,1-6.021-3.147,1.257,1.257,0,1,0-2.054,1.449,11.225,11.225,0,0,0,7.234,4.11q.978-.722,1.916-1.427A1.245,1.245,0,0,0,32.713,37.41Z" transform="translate(-24.407 -33.73)" fill="#dd7017"/></g><g transform="translate(11.209 13.144)"><path d="M15.047,30.41a1.252,1.252,0,0,1,.965,1.075,5.58,5.58,0,0,0,1.946,3.763,1.257,1.257,0,0,1-1.45,2.053,7.9,7.9,0,0,1-2.888-4.856" transform="translate(-13.62 -30.41)" fill="#dd7017"/><path d="M16.509,37.3a1.257,1.257,0,0,0,1.45-2.053,5.572,5.572,0,0,1-1.946-3.763,1.246,1.246,0,0,0-.965-1.075q-.714,1.008-1.427,2.035A7.9,7.9,0,0,0,16.509,37.3Z" transform="translate(-13.62 -30.41)" fill="#dd7017"/></g><g transform="translate(11.128 29.094)"><path d="M19.17,48.058a8.055,8.055,0,0,1-5.384-2.971,1.257,1.257,0,0,1,2.053-1.45A5.572,5.572,0,0,0,19.6,45.583a1.256,1.256,0,0,1,1.112,1.386,1.094,1.094,0,0,1-.033.109" transform="translate(-13.556 -43.104)" fill="#dd7017"/><path d="M19.6,45.584a5.574,5.574,0,0,1-3.762-1.946,1.257,1.257,0,1,0-2.053,1.45,8.058,8.058,0,0,0,5.384,2.971c.5-.323,1.006-.651,1.51-.979a1.093,1.093,0,0,0,.033-.109A1.257,1.257,0,0,0,19.6,45.584Z" transform="translate(-13.556 -43.104)" fill="#dd7017"/></g></g></g></svg>