<svg xmlns="http://www.w3.org/2000/svg" width="66.711" height="60.26" viewBox="0 0 66.711 60.26"><g transform="translate(0.009 -0.017)"><path d="M145.907,228.875l.1-.02a4.687,4.687,0,0,0,3.687-5.507l-2.661-13.441-4.7.931Zm0,0" transform="translate(-121.837 -179.65)" fill="#fcda4f"/><path d="M121,23.648c-5.382-.113-9.882,6.272-10.049,14.26s4.059,14.556,9.442,14.669,9.882-6.271,10.049-14.26S126.379,23.761,121,23.648Zm0,0" transform="translate(-94.967 -20.225)" fill="#ccc033"/><path d="M125.8,34.54a21.881,21.881,0,0,0-5.318-10.805c-5.267.3-9.513,6.776-9.536,14.637-.023,7.69,4,13.9,9.108,14.266,4.815-2.588,7.338-10.059,5.746-18.1Zm0,0" transform="translate(-94.969 -20.3)" fill="#99af17"/><path d="M117.979,234.4l-.1.021a4.686,4.686,0,0,1-5.507-3.687l-2.661-13.441,4.7-.931Zm0,0" transform="translate(-93.909 -185.177)" fill="#fcda4f"/><path d="M19.571,58.773c-3.2-7.322-9.792-11.51-14.725-9.355s-6.339,9.839-3.14,17.161S11.5,78.09,16.431,75.934s6.339-9.839,3.14-17.161Zm0,0" transform="translate(0 -41.8)" fill="#99af17"/><path d="M64.38,14.606C62.557,5.4,56.028-1.063,49.795.17s-9.807,9.7-7.985,18.9S50.162,34.744,56.4,33.51s9.807-9.7,7.985-18.9Zm0,0" transform="translate(-35.387 -0.002)" fill="#eacf32"/><path d="M47.941,17.857C46.429,10.221,48.631,3.1,52.983.184A8.077,8.077,0,0,0,49.794.168c-6.232,1.234-9.807,9.7-7.984,18.9s8.352,15.669,14.584,14.436a8.094,8.094,0,0,0,2.942-1.23c-5.133-1.034-9.884-6.783-11.4-14.419Zm0,0" transform="translate(-35.387 0)" fill="#ccc033"/><path d="M89.651,98.564a8.523,8.523,0,0,1-4.344-1.325.865.865,0,0,1,.967-1.433,6.4,6.4,0,0,0,4.293.936,4.985,4.985,0,0,0,3.14-2.4.864.864,0,1,1,1.455.933A6.637,6.637,0,0,1,90.9,98.439a6.2,6.2,0,0,1-1.253.125Zm0,0" transform="translate(-72.699 -80.398)" fill="#ffeea4"/><path d="M86.078,140.272a11.625,11.625,0,0,1-6.677-2.611.864.864,0,0,1,1.117-1.32c.033.028,3.347,2.78,6.667,2.091,1.89-.392,3.476-1.849,4.714-4.333a.864.864,0,1,1,1.547.771c-1.489,2.986-3.481,4.755-5.922,5.257a7.144,7.144,0,0,1-1.446.145Zm0,0" transform="translate(-67.707 -114.355)" fill="#ffeea4"/><path d="M110.522,75.71a1.187,1.187,0,0,0-2.314.454l5.746,35.38a1,1,0,0,0,.082.262,2.275,2.275,0,0,0,2.642,1.5l.024-.006.029,0a2.237,2.237,0,0,0,1.83-2.388.969.969,0,0,0-.023-.268Zm0,0" transform="translate(-92.616 -64.083)" fill="#fff9dc"/><path d="M115.425,111.533a.981.981,0,0,1-.082-.262L109.6,75.89a1.049,1.049,0,0,1,.3-.9,1.244,1.244,0,0,0-.737-.075,1.135,1.135,0,0,0-.953,1.253l5.746,35.38a1,1,0,0,0,.082.262,2.275,2.275,0,0,0,2.642,1.5l.024-.006.029,0a2.348,2.348,0,0,0,.644-.23,2.236,2.236,0,0,1-1.95-1.537Zm0,0" transform="translate(-92.616 -64.084)" fill="#fff4c1"/><path d="M279.2,128.357a3.214,3.214,0,0,1-1.526-3.825l7.3-21.49a7.293,7.293,0,1,1,12.621,6.987l-14.339,17.59a3.213,3.213,0,0,1-4.051.738Zm0,0" transform="translate(-237.537 -84.099)" fill="#ff624b"/><path d="M400.77,32.855h0a3.252,3.252,0,0,0,.576-.754,3.411,3.411,0,0,0-5.967-3.3,3.264,3.264,0,0,0-.333.887h0l0,.01q-.027.128-.044.258l-1.018,5.963a1.2,1.2,0,0,0,1.957,1.1l4.535-3.91a3.253,3.253,0,0,0,.288-.248Zm0,0" transform="translate(-337.214 -23.186)" fill="#eacf32"/><g transform="translate(42.982 20.547)"><path d="M302.929,230.628a.857.857,0,0,1-.344-.072l-3.669-1.594a.864.864,0,1,1,.689-1.585l3.669,1.594a.865.865,0,0,1-.345,1.657Zm0,0" transform="translate(-298.396 -215.089)" fill="#ff4b34"/><path d="M334.324,208.29a.861.861,0,0,1-.344-.072l-4.771-2.072a.864.864,0,0,1,.688-1.586l4.771,2.072a.865.865,0,0,1-.345,1.658Zm0,0" transform="translate(-324.325 -195.56)" fill="#ff4b34"/><path d="M327.8,168.035a.854.854,0,0,1-.343-.072l-3.669-1.594a.864.864,0,1,1,.688-1.585l3.669,1.594a.865.865,0,0,1-.345,1.658Zm0,0" transform="translate(-319.681 -161.513)" fill="#ff4b34"/><path d="M360.556,147.1a.866.866,0,0,1-.344-.071l-6.581-2.858a.864.864,0,0,1,.688-1.586l6.581,2.858a.864.864,0,0,1-.345,1.657Zm0,0" transform="translate(-345.228 -142.517)" fill="#ff4b34"/></g><path d="M395.546,37.244c0-.021,0-.042.008-.064l1.018-5.963q.017-.13.044-.258l0-.01h0a3.266,3.266,0,0,1,.333-.887,3.354,3.354,0,0,1,4.207-1.438,3.467,3.467,0,0,0-1.187-1.079,3.367,3.367,0,0,0-4.593,1.256,3.248,3.248,0,0,0-.333.887h0l0,.01c-.019.086-.033.172-.044.258l-1.018,5.964a1.189,1.189,0,0,0,.605,1.233A1.209,1.209,0,0,0,395.546,37.244Zm0,0" transform="translate(-337.214 -23.187)" fill="#ccc033"/><path d="M362.874,47.328l-1.023-4.82a2.644,2.644,0,0,0-.065-.306l0-.009h0a2.774,2.774,0,0,0-.314-.72,2.824,2.824,0,0,0-3.808-.973,2.676,2.676,0,0,0-.9,3.736,2.827,2.827,0,0,0,.505.608h0l.007.005c.054.049.11.1.168.14l3.876,3.237a.981.981,0,0,0,1.122.1A.927.927,0,0,0,362.874,47.328Zm0,0" transform="translate(-305.015 -34.329)" fill="#fce575"/><path d="M359.381,44.1c-.057-.044-.113-.091-.168-.14l-.006-.006h0a2.811,2.811,0,0,1-.505-.608,2.688,2.688,0,0,1,.266-3.216,2.736,2.736,0,0,0-1.306.374,2.675,2.675,0,0,0-.9,3.736,2.826,2.826,0,0,0,.505.608h0l.007.005c.054.049.11.1.168.14l3.876,3.237a.981.981,0,0,0,1.122.1.927.927,0,0,0,.438-1l-.082-.385Zm0,0" transform="translate(-305.016 -34.336)" fill="#eacf32"/><path d="M408.566,80.629a2.825,2.825,0,0,0-2.846-2.711,2.775,2.775,0,0,0-.777.117h0l-.009,0a2.738,2.738,0,0,0-.294.107l-4.628,1.692a.928.928,0,0,0-.612.9.981.981,0,0,0,.68.9l4.8,1.566c.068.025.137.048.207.068l.008,0h0a2.819,2.819,0,0,0,.783.106A2.675,2.675,0,0,0,408.566,80.629Zm0,0" transform="translate(-341.866 -66.677)" fill="#fce575"/><path d="M407.823,90.637a2.816,2.816,0,0,1-.783-.105h0l-.008,0c-.07-.02-.14-.043-.207-.068l-4.8-1.567a.981.981,0,0,1-.68-.9.924.924,0,0,1,.163-.554l-1.494.546a.928.928,0,0,0-.612.9.981.981,0,0,0,.68.9l4.8,1.567c.068.025.137.048.207.068l.008,0h0a2.818,2.818,0,0,0,.783.106,2.712,2.712,0,0,0,2.01-.9l-.066,0Zm0,0" transform="translate(-341.866 -74.832)" fill="#eacf32"/><path d="M281.485,125.507l7.3-21.489a7.071,7.071,0,0,1,6.618-4.768l-.064-.037a7.194,7.194,0,0,0-10.365,3.83l-7.3,21.49a3.213,3.213,0,0,0,1.525,3.825,3.266,3.266,0,0,0,2.843.164,3.171,3.171,0,0,1-.558-3.015Zm0,0" transform="translate(-237.536 -84.1)" fill="#ff4b34"/><path d="M230.244,112.139a.829.829,0,0,1-.814-.8l-.362-6.136a.836.836,0,0,1,.814-.9h.723a.835.835,0,0,1,.814.9l-.361,6.136A.83.83,0,0,1,230.244,112.139Zm0,0" transform="translate(-196.073 -89.263)" fill="#bf6c0d"/><path d="M240.138,105.661c4.927,2.729,6.271-2.951,6.573-4.809a.561.561,0,0,0-.463-.652c-1.836-.255-7.668-.649-6.522,4.894a.839.839,0,0,0,.412.567Zm0,0" transform="translate(-205.07 -85.644)" fill="#eacf32"/><path d="M230.192,111.342l-.361-6.136a.836.836,0,0,1,.795-.9h-.742a.836.836,0,0,0-.814.9l.362,6.136a.83.83,0,0,0,.814.8.789.789,0,0,0,.381-.1A.852.852,0,0,1,230.192,111.342Zm0,0" transform="translate(-196.074 -89.263)" fill="#8c4c17"/><path d="M158.137,139.639a8.606,8.606,0,0,0-7.292,2,8.608,8.608,0,0,0-7.293-2c-5.176,1.114-8.268,7.326-6.9,13.875s6.664,10.957,11.84,9.843a7.752,7.752,0,0,0,2.357-.933,7.752,7.752,0,0,0,2.357.933c5.176,1.113,10.478-3.294,11.84-9.843S163.313,140.752,158.137,139.639Zm0,0" transform="translate(-116.692 -119.359)" fill="#ff624b"/><path d="M241.209,105.835c-.979-4.739,3.14-5.138,5.5-5a.56.56,0,0,0-.464-.64c-1.836-.256-7.668-.649-6.522,4.894a.843.843,0,0,0,.413.567,6.482,6.482,0,0,0,1.245.541A.858.858,0,0,1,241.209,105.835Zm0,0" transform="translate(-205.07 -85.642)" fill="#ccc033"/><path d="M141.1,153.516c-1.31-6.3,1.5-12.279,6.313-13.722a7.839,7.839,0,0,0-3.859-.153c-5.176,1.114-8.268,7.326-6.9,13.875s6.664,10.957,11.84,9.843c.2-.043.4-.095.591-.153C145.347,162.124,142.117,158.421,141.1,153.516Zm0,0" transform="translate(-116.692 -119.361)" fill="#ff4b34"/><path d="M37.008,203.725V170.786a1.4,1.4,0,0,1,1.4-1.4H45a1.4,1.4,0,0,1,1.4,1.4v32.939a1.4,1.4,0,0,1-1.4,1.4H38.4A1.4,1.4,0,0,1,37.008,203.725Zm0,0" transform="translate(-31.684 -144.972)" fill="#db9c2e"/><path d="M361.84,203.725V170.786a1.4,1.4,0,0,1,1.4-1.4h6.6a1.4,1.4,0,0,1,1.4,1.4v32.939a1.4,1.4,0,0,1-1.4,1.4h-6.6A1.4,1.4,0,0,1,361.84,203.725Zm0,0" transform="translate(-309.718 -144.972)" fill="#db9c2e"/><path d="M70.4,200.65H8.449a1.441,1.441,0,0,1-1.441-1.441v-6.483a1.441,1.441,0,0,1,1.441-1.441H70.4a1.441,1.441,0,0,1,1.441,1.441v6.483A1.441,1.441,0,0,1,70.4,200.65Zm0,0" transform="translate(-6.006 -163.712)" fill="#ffc34c"/><path d="M70.4,281.65H8.449a1.441,1.441,0,0,1-1.441-1.441v-6.483a1.441,1.441,0,0,1,1.441-1.441H70.4a1.441,1.441,0,0,1,1.441,1.441v6.483A1.441,1.441,0,0,1,70.4,281.65Zm0,0" transform="translate(-6.006 -233.042)" fill="#ffc34c"/><path d="M70.4,362.65H8.449a1.441,1.441,0,0,1-1.441-1.441v-6.483a1.441,1.441,0,0,1,1.441-1.441H70.4a1.441,1.441,0,0,1,1.441,1.441v6.483A1.441,1.441,0,0,1,70.4,362.65Zm0,0" transform="translate(-6.006 -302.373)" fill="#ffc34c"/><path d="M433.872,371.188a.864.864,0,0,1-.864-.864v-4.178a.864.864,0,1,1,1.729,0v4.178A.864.864,0,0,1,433.872,371.188Zm0,0" transform="translate(-370.632 -312.64)" fill="#ffd551"/><path d="M386.889,374.726a1.441,1.441,0,1,1-1.441-1.441A1.441,1.441,0,0,1,386.889,374.726Zm0,0" transform="translate(-328.692 -319.491)" fill="#ffdf74"/><path d="M386.889,293.726a1.441,1.441,0,1,1-1.441-1.441A1.441,1.441,0,0,1,386.889,293.726Zm0,0" transform="translate(-328.692 -250.161)" fill="#ffdf74"/><path d="M386.889,212.726a1.441,1.441,0,1,1-1.441-1.441A1.441,1.441,0,0,1,386.889,212.726Zm0,0" transform="translate(-328.692 -180.831)" fill="#ffdf74"/><path d="M15.652,280.209v-6.483a1.441,1.441,0,0,1,1.441-1.441H8.448a1.441,1.441,0,0,0-1.441,1.441v6.483a1.441,1.441,0,0,0,1.441,1.441h8.644A1.441,1.441,0,0,1,15.652,280.209Zm0,0" transform="translate(-6.006 -233.042)" fill="#f9bb32"/><path d="M15.652,361.209v-6.483a1.441,1.441,0,0,1,1.441-1.441H8.448a1.441,1.441,0,0,0-1.441,1.441v6.483a1.441,1.441,0,0,0,1.441,1.441h8.644A1.441,1.441,0,0,1,15.652,361.209Zm0,0" transform="translate(-6.006 -302.373)" fill="#f9bb32"/><path d="M15.652,199.209v-6.483a1.441,1.441,0,0,1,1.441-1.441H8.448a1.441,1.441,0,0,0-1.441,1.441v6.483a1.441,1.441,0,0,0,1.441,1.441h8.644A1.441,1.441,0,0,1,15.652,199.209Zm0,0" transform="translate(-6.006 -163.712)" fill="#f9bb32"/><path d="M62.889,212.726a1.441,1.441,0,1,1-1.441-1.441A1.441,1.441,0,0,1,62.889,212.726Zm0,0" transform="translate(-51.37 -180.831)" fill="#ffdf74"/><path d="M62.889,293.726a1.441,1.441,0,1,1-1.441-1.441A1.441,1.441,0,0,1,62.889,293.726Zm0,0" transform="translate(-51.37 -250.161)" fill="#ffdf74"/><path d="M62.889,374.726a1.441,1.441,0,1,1-1.441-1.441A1.441,1.441,0,0,1,62.889,374.726Zm0,0" transform="translate(-51.37 -319.491)" fill="#ffdf74"/><path d="M61.016,295.491v-2.749a1.441,1.441,0,0,0,0,2.749Zm0,0" transform="translate(-51.37 -250.552)" fill="#ffd551"/><path d="M61.016,376.491v-2.749a1.441,1.441,0,0,0,0,2.749Zm0,0" transform="translate(-51.37 -319.882)" fill="#ffd551"/><path d="M61.016,214.491v-2.749a1.441,1.441,0,0,0,0,2.749Zm0,0" transform="translate(-51.37 -181.222)" fill="#ffd551"/><path d="M119.015,206.306a2.521,2.521,0,1,1-2.521-2.521A2.521,2.521,0,0,1,119.015,206.306Zm0,0" transform="translate(-97.561 -174.411)" fill="#f9bb32"/><path d="M179.015,287.306a2.521,2.521,0,1,1-2.521-2.521A2.521,2.521,0,0,1,179.015,287.306Zm0,0" transform="translate(-148.917 -243.742)" fill="#f9bb32"/><path d="M433.872,290.188a.864.864,0,0,1-.864-.864v-4.178a.864.864,0,1,1,1.729,0v4.178A.864.864,0,0,1,433.872,290.188Zm0,0" transform="translate(-370.632 -243.31)" fill="#ffd551"/><path d="M433.872,206.188a.864.864,0,0,1-.864-.864v-4.178a.864.864,0,0,1,1.729,0v4.178A.864.864,0,0,1,433.872,206.188Zm0,0" transform="translate(-370.632 -171.412)" fill="#ffd551"/></g></svg>