<svg xmlns="http://www.w3.org/2000/svg" width="73.8" height="62.166" viewBox="0 0 73.8 62.166"><g transform="translate(0 -40.36)"><path d="M227.359,47.793c-2.377-7.98-8.768-7.139-10.864-6.625a2.046,2.046,0,0,1-1.307-.1,6.983,6.983,0,0,0-8.84,2.443,1.57,1.57,0,0,1-1.316.637,4.243,4.243,0,0,0-4.477,3.279V58.491h26.8v-10.7Z" transform="translate(-171.646 0)" fill="#30aa44"/><path d="M203.693,48.416a4.243,4.243,0,0,1,4.477-3.279,1.57,1.57,0,0,0,1.316-.637,6.983,6.983,0,0,1,8.84-2.443,2.047,2.047,0,0,0,1.306.1,10.561,10.561,0,0,1,3.546-.255,9.287,9.287,0,0,0-6.685-.737,2.046,2.046,0,0,1-1.307-.1,6.983,6.983,0,0,0-8.84,2.443,1.57,1.57,0,0,1-1.316.637,4.243,4.243,0,0,0-4.477,3.279V58.493h3.139V48.416Z" transform="translate(-171.646 -0.002)" fill="#269e35"/><path d="M71.835,87.444c-6.357-9.413-14.023-5.792-16.318-4.389a2.327,2.327,0,0,1-1.478.341c-8.047-.933-10.09,5.6-10.09,5.6v11.991H71.835V87.444Z" transform="translate(-37.613 -34.944)" fill="#3bbc56"/><path d="M47.272,90.177s2.044-6.53,10.09-5.6a2.327,2.327,0,0,0,1.478-.341A11.955,11.955,0,0,1,66.758,82.5c-4.885-2.74-9.541-.481-11.242.559a2.327,2.327,0,0,1-1.478.341c-8.047-.933-10.09,5.6-10.09,5.6V100.99h3.325Z" transform="translate(-37.612 -34.95)" fill="#30aa44"/><path d="M215.6,96.237c-7.738-10.851-16.67-6.062-19.273-4.3a2.013,2.013,0,0,1-1.646.275c-6.989-1.869-10.371,3.389-11.467,5.634a2.1,2.1,0,0,1-1.438,1.125c-5.71,1.245-4.816,7.09-4.816,7.09v13.223h20.015Z" transform="translate(-151.411 -41.933)" fill="#83cc8e"/><g transform="translate(25.5 47.424)"><path d="M309.556,92.544a2.013,2.013,0,0,0,1.646-.275,14.715,14.715,0,0,1,7.727-2.579c-4.8-1.177-8.97,1.142-10.614,2.255a1.994,1.994,0,0,1-.558.261A11.668,11.668,0,0,1,309.556,92.544Z" transform="translate(-288.897 -89.365)" fill="#78c181"/><path d="M179.848,133.9V121s-.893-5.846,4.816-7.09a2.1,2.1,0,0,0,1.438-1.125c.917-1.878,3.435-5.865,8.327-6.023-6.817-1.676-10.131,3.481-11.214,5.7a2.1,2.1,0,0,1-1.438,1.125c-5.71,1.245-4.816,7.09-4.816,7.09V133.9h2.887Z" transform="translate(-176.91 -103.975)" fill="#78c181"/></g><path d="M263.291,141.214a1.114,1.114,0,0,0-1.461-.587,17.555,17.555,0,0,0-3.061,1.824,7.793,7.793,0,0,0-1.282-2.469,1.114,1.114,0,0,0-1.708,1.429,5.979,5.979,0,0,1,1.074,2.577,24.944,24.944,0,0,0-4.358,5.08,11.693,11.693,0,0,0-2.3-5.369,1.114,1.114,0,0,0-1.662,1.483c.021.024,2.086,2.454,2.047,7.4a28.892,28.892,0,0,0-2.319,8.51,1.114,1.114,0,0,0,2.212.263,26.133,26.133,0,0,1,2.28-8.211,23.114,23.114,0,0,1,4.446-6.412,19.678,19.678,0,0,1,5.51-4.062A1.114,1.114,0,0,0,263.291,141.214Z" transform="translate(-212.462 -84.925)" fill="#9be0a3"/><path d="M14.6,153.327s-7.094,2.031-10.042-4.458a2.177,2.177,0,0,0-.677-.848c-1.309-.976-4.924-4.14-3.59-8.5,1.566-5.123,10.5-7.354,17.406,1.579a2.793,2.793,0,0,0,1.72,1.045,12.57,12.57,0,0,1,9.706,8.48,3.235,3.235,0,0,0,2.038,1.968,10.8,10.8,0,0,1,6.036,4.89,12.244,12.244,0,0,0-1.615,4.751c-.644,5.8.508,7.907.439,9.675V175.9A10.526,10.526,0,0,1,25.5,169.811C21.824,162.683,14.6,153.327,14.6,153.327Z" transform="translate(0 -81.026)" fill="#30aa44"/><path d="M7.529,148.876a2.178,2.178,0,0,0-.677-.848c-1.309-.976-4.924-4.14-3.59-8.5a6.63,6.63,0,0,1,5.464-4.364c-4.079-.639-7.518,1.367-8.434,4.364-1.333,4.364,2.281,7.529,3.59,8.5a2.176,2.176,0,0,1,.677.848c2.265,4.986,6.979,4.942,9.04,4.654A7.615,7.615,0,0,1,7.529,148.876Z" transform="translate(-0.001 -81.033)" fill="#269e35"/><path d="M73.969,225.856c-3.482-6.554-7.36-14.457-16.764-20.55a.316.316,0,0,0-.389.494c3.564,3.362,9.409,10.338,13.445,22.592,4.791,14.545,12.13,15.513,15.178,15.216v-8.462C83.059,234.968,78.08,233.6,73.969,225.856Z" transform="translate(-48.539 -141.124)" fill="#83cc8e"/><path d="M73.868,228.392a65.159,65.159,0,0,0-4.9-11.311A39.775,39.775,0,0,0,57.2,205.306a.316.316,0,0,0-.389.494c3.564,3.362,9.409,10.338,13.445,22.592,4.791,14.545,12.13,15.513,15.178,15.216v-.374C81.921,242.176,77.257,238.682,73.868,228.392Z" transform="translate(-48.539 -141.124)" fill="#78c181"/><path d="M259.449,153.327s7.094,2.031,10.042-4.458a2.177,2.177,0,0,1,.677-.848c1.309-.976,4.924-4.14,3.59-8.5-1.566-5.123-10.5-7.354-17.406,1.579a2.793,2.793,0,0,1-1.72,1.045,12.57,12.57,0,0,0-9.706,8.48,3.236,3.236,0,0,1-2.038,1.968c-2.3.748-6.469,3.007-7.206,9.642-1.029,9.262,2.9,9.109-1.708,13.192,0,0,.115,2.533,5.5,1.444S259.449,153.327,259.449,153.327Z" transform="translate(-200.249 -81.026)" fill="#30aa44"/><path d="M237.148,175.427c4.613-4.082.679-3.93,1.708-13.192.737-6.635,4.9-8.894,7.206-9.642a3.235,3.235,0,0,0,2.038-1.968,12.57,12.57,0,0,1,9.706-8.48,2.793,2.793,0,0,0,1.72-1.045c2.829-3.66,6-5.445,8.864-5.926-3.514-.628-8.106.837-12.039,5.926a2.793,2.793,0,0,1-1.72,1.045,12.57,12.57,0,0,0-9.706,8.48,3.235,3.235,0,0,1-2.038,1.968c-2.3.748-6.469,3.007-7.206,9.642-1.029,9.262,2.9,9.109-1.709,13.192,0,0,.109,2.329,4.877,1.557C237.2,176.56,237.148,175.427,237.148,175.427Z" transform="translate(-200.248 -81.032)" fill="#269e35"/><path d="M234.759,225.857c-4.646,8.745-10.4,9.362-12.262,9.312a4.105,4.105,0,1,0-1.162,8.127c.384.051.766.115,1.145.193,2.292.471,10.693.97,15.986-15.1,4.037-12.254,9.882-19.23,13.445-22.592a.316.316,0,0,0-.389-.494C242.118,211.4,238.24,219.3,234.759,225.857Z" transform="translate(-186.388 -141.125)" fill="#83cc8e"/><g transform="translate(31.391 64.128)"><path d="M220.8,241.137a4.079,4.079,0,0,1,4.718-4.057c1.861.05,7.616-.567,12.262-9.312.974-1.833,1.979-3.772,3.128-5.748a49.846,49.846,0,0,1,11-16.221.316.316,0,0,0-.389-.494c-9.4,6.093-13.282,14-16.764,20.55-4.646,8.745-10.4,9.362-12.262,9.312a4.105,4.105,0,1,0-1.162,8.127l.09.014A4.087,4.087,0,0,1,220.8,241.137Z" transform="translate(-217.779 -205.251)" fill="#78c181"/><path d="M312.532,313.332a1.114,1.114,0,0,1-1.095-.916A10.633,10.633,0,0,0,308.7,307.1a1.114,1.114,0,0,1,1.536-1.614,12.869,12.869,0,0,1,3.392,6.535,1.115,1.115,0,0,1-1.1,1.312Z" transform="translate(-295.3 -290.775)" fill="#78c181"/></g><path d="M177.652,323.546l-.079,0a1.114,1.114,0,0,1-1.033-1.189,12.869,12.869,0,0,1,2.662-6.865,1.114,1.114,0,0,1,1.7,1.435,10.772,10.772,0,0,0-2.143,5.585A1.114,1.114,0,0,1,177.652,323.546Z" transform="translate(-151.091 -235.135)" fill="#83cc8e"/></g></svg>