<svg xmlns="http://www.w3.org/2000/svg" width="61.823" height="71.446" viewBox="0 0 61.823 71.446"><g transform="translate(-34.481)"><path d="M233.641,463.535l-2.889-2.889-.005,0c-.03-.03-.062-.058-.094-.085l-.047-.035c-.02-.015-.039-.03-.06-.044s-.038-.023-.057-.035-.038-.023-.057-.034-.039-.019-.059-.029-.041-.02-.062-.029l-.058-.021c-.022-.008-.045-.017-.068-.024l-.058-.015c-.024-.006-.047-.013-.071-.017l-.066-.01-.066-.01c-.039,0-.078-.005-.118-.006h-.032c-.039,0-.079,0-.118.006l-.066.01-.066.01c-.024,0-.047.011-.071.017l-.058.015c-.023.007-.045.016-.068.024l-.058.021-.062.028c-.02.009-.04.018-.059.028l-.057.034c-.019.012-.039.022-.057.035s-.04.029-.06.044-.032.023-.047.035q-.049.04-.094.085l-.005,0-2.889,2.889a1.362,1.362,0,0,0,1.926,1.926l.564-.564v1.21a1.362,1.362,0,1,0,2.724,0V464.9l.564.564a1.362,1.362,0,0,0,1.927-1.926Z" transform="translate(-164.397 -396.023)" fill="#b27214"/><path d="M71.588,9.523,70.567,0H60.218L59.2,9.523a15.576,15.576,0,0,1-9.165,12.568c-9.292,4.133-15.551,11.9-15.551,20.8,0,13.236,13.84,23.967,30.911,23.967S96.3,56.128,96.3,42.892c0-8.9-6.259-16.668-15.551-20.8A15.576,15.576,0,0,1,71.588,9.523Z" transform="translate(0 -0.001)" fill="#f7b239"/><path d="M65.392,66.858c-17.072,0-30.911-10.731-30.911-23.966,0-8.9,6.259-16.669,15.55-20.8A15.578,15.578,0,0,0,59.2,9.522L60.217,0h2.8l-.467,9.522c-.272,5.525-1.876,10.31-4.205,12.569-4.262,4.133-7.134,11.9-7.134,20.8C51.211,56.127,57.561,66.858,65.392,66.858Z" transform="translate(0)" fill="#e09b2d"/><g transform="translate(44.126 22.241)"><path d="M108.361,212.352a.908.908,0,0,1-.774-.432,27.644,27.644,0,0,1-3.986-14.506,27.013,27.013,0,0,1,6.16-17.51.908.908,0,0,1,1.385,1.174,25.2,25.2,0,0,0-5.729,16.336,25.829,25.829,0,0,0,3.717,13.555.908.908,0,0,1-.773,1.383Z" transform="translate(-103.601 -176.765)" fill="#b27214"/><path d="M355.782,212.35a.908.908,0,0,1-.773-1.383,25.828,25.828,0,0,0,3.717-13.555A25.2,25.2,0,0,0,353,181.076a.908.908,0,1,1,1.385-1.174,27.012,27.012,0,0,1,6.16,17.51,27.644,27.644,0,0,1-3.985,14.506A.908.908,0,0,1,355.782,212.35Z" transform="translate(-318.01 -176.763)" fill="#b27214"/><path d="M281.75,197.969a.909.909,0,0,1-.866-1.181,58.275,58.275,0,0,0,2.17-16.754c0-7.756-1.178-15-3.151-19.367a.908.908,0,1,1,1.655-.747c2.074,4.594,3.312,12.113,3.312,20.114a60.1,60.1,0,0,1-2.253,17.3A.908.908,0,0,1,281.75,197.969Z" transform="translate(-255.23 -159.385)" fill="#b27214"/><path d="M199.131,197.969a.908.908,0,0,1-.866-.636,60.091,60.091,0,0,1-2.253-17.3c0-8.005,1.238-15.525,3.312-20.115a.908.908,0,0,1,1.655.748c-1.973,4.367-3.151,11.607-3.151,19.367A58.27,58.27,0,0,0,200,196.788a.908.908,0,0,1-.866,1.18Z" transform="translate(-183.117 -159.385)" fill="#b27214"/></g></g></svg>