<svg xmlns="http://www.w3.org/2000/svg" width="82.105" height="80.343" viewBox="0 0 82.105 80.343"><g transform="translate(51.069 -26.471) rotate(60)"><g transform="translate(30.566)"><path d="M81.831,54.95c.006-.583-.058-1.166-.09-1.749s-.083-1.167-.128-1.75c-.135-1.161-.269-2.321-.436-3.475-.1-.571-.205-1.135-.308-1.705-.051-.282-.1-.571-.154-.846s-.1-.571-.173-.846c-.256-1.1-.5-2.212-.789-3.289-.307-1.064-.622-2.116-.917-3.141q-.529-1.519-1.039-2.962c-.083-.244-.167-.487-.256-.718s-.185-.462-.281-.692c-.186-.455-.372-.9-.551-1.352s-.365-.878-.545-1.308-.378-.833-.564-1.238c-.378-.808-.744-1.576-1.09-2.308-.174-.378-.359-.718-.538-1.052s-.353-.672-.519-.987c-.339-.635-.66-1.237-.955-1.782-.077-.141-.147-.276-.219-.41s-.153-.25-.224-.372c-.147-.244-.288-.481-.417-.7-1.064-1.776-1.673-2.8-1.673-2.8a11.18,11.18,0,0,0-2.1-2.539,10.914,10.914,0,0,0-6.116-2.725,9.283,9.283,0,0,0-2.019,2.026c-2.981,3.93-3.9,1.417-8.2,4.686a6.574,6.574,0,0,0-1.68,1.846,10.957,10.957,0,0,0,3.4,10.513l.071.064s.686.609,1.885,1.68c.153.135.313.282.481.43.083.07.167.147.25.224s.173.167.256.25q.509.51,1.115,1.1c.2.193.4.4.615.609s.442.422.641.655c.423.461.872.942,1.333,1.449.231.256.487.506.712.782s.455.551.692.833.474.577.724.871c.121.147.244.3.372.449s.23.308.346.462c.467.628.955,1.275,1.449,1.942.455.685.923,1.391,1.4,2.1.455.725.878,1.482,1.34,2.244.121.193.224.391.321.583s.212.4.314.6c.2.4.416.8.628,1.206.391.814.756,1.647,1.141,2.494.167.43.333.859.506,1.3s.353.865.487,1.307c.282.885.615,1.769.84,2.673.122.456.251.91.372,1.366.1.455.2.91.3,1.365.051.225.1.456.153.68s.077.462.122.692c.077.462.154.917.231,1.373s.115.91.173,1.365.115.91.141,1.366.065.9.1,1.346.026.892.045,1.327c.044.885,0,1.749,0,2.6a47.12,47.12,0,0,1-.417,4.789c-.212,1.481-.462,2.846-.75,4.045s-.577,2.237-.846,3.084-.519,1.5-.685,1.942c-.09.218-.154.385-.2.494a1.147,1.147,0,0,1-.058.122.087.087,0,0,1-.019.044v.007a.834.834,0,0,0,1.385.9.1.1,0,0,0,.032-.032c.026-.032.058-.064.1-.115.083-.109.212-.263.372-.462.321-.4.776-.987,1.314-1.776s1.18-1.744,1.846-2.891,1.378-2.475,2.077-3.968a50.13,50.13,0,0,0,2.019-4.981c.295-.91.628-1.847.878-2.827.135-.487.281-.981.4-1.487s.237-1.019.359-1.539.218-1.044.314-1.576.212-1.071.288-1.622.147-1.1.224-1.648c.032-.276.077-.558.1-.84s.051-.558.077-.84c.045-.571.09-1.14.141-1.712.019-.571.039-1.147.058-1.718C81.9,57.283,81.85,56.124,81.831,54.95Z" transform="translate(-37.399 -5.101)" fill="#109d59"/><path d="M44.7,15.822c4.3-3.269,5.218-.756,8.2-4.686A9.3,9.3,0,0,1,54.919,9.11c2.417-1.692,4.95-1.039,7.154,1.545-.551-.647-.9-1.5-1.532-2.148A6.876,6.876,0,0,0,54.977,6.25c-1.982.109-3.917,1.276-5.917,1.045a7.716,7.716,0,0,1-4.212-2.314c-.192-.186-.385-.365-.576-.551-.276-.231-.532-.481-.821-.712s-.571-.462-.865-.68-.6-.43-.91-.641-.628-.385-.943-.583c-.333-.167-.647-.353-.98-.506S39.1,1,38.758.878C38.6.814,38.431.75,38.264.692s-.334-.11-.5-.16-.327-.1-.487-.147-.334-.071-.494-.109a8.8,8.8,0,0,0-.955-.167,9.079,9.079,0,0,0-.91-.083C34.777.019,34.63,0,34.489,0s-.281.006-.416.013A11.011,11.011,0,0,0,32.6.128c-.43.077-.8.147-1.1.218-.6.173-.936.269-.936.269l.962-.122c.307-.026.68-.032,1.1-.051a11.782,11.782,0,0,1,1.417.109c.128.013.256.032.391.051s.262.058.4.083c.27.064.551.109.834.205a7.643,7.643,0,0,1,.846.3c.142.051.288.109.43.167s.282.135.43.2.282.135.43.212.276.16.416.244a9.464,9.464,0,0,1,.833.519c.276.186.539.4.808.59.25.218.519.423.763.654s.494.455.724.7.462.481.68.731.43.506.634.75.4.506.59.763c.365.506.711,1.013,1.012,1.5.065.09.122.186.174.276a4.53,4.53,0,0,1,.09,3.019,12.693,12.693,0,0,1-1.749,2.314c-2.064,2.9-1.872,7.494.006,10.444-.115-.263-1.545-3.642.237-6.6A6.539,6.539,0,0,1,44.7,15.822Z" transform="translate(-30.566)" fill="#663f30"/></g><g transform="translate(30.566)"><path d="M85.258,54.95c.006-.583-.058-1.166-.09-1.749s-.083-1.167-.128-1.75c-.135-1.161-.269-2.321-.436-3.475-.1-.571-.205-1.135-.308-1.705-.051-.282-.1-.571-.154-.846s-.1-.571-.173-.846c-.256-1.1-.5-2.212-.789-3.289-.307-1.064-.622-2.116-.917-3.141q-.529-1.519-1.039-2.962c-.083-.244-.167-.487-.256-.718s-.185-.462-.281-.692c-.186-.455-.372-.9-.551-1.352s-.365-.878-.545-1.308-.378-.833-.564-1.238c-.378-.808-.744-1.576-1.09-2.308-.174-.378-.359-.718-.538-1.052s-.353-.672-.519-.987c-.339-.635-.66-1.237-.955-1.782-.077-.141-.147-.276-.219-.41s-.153-.25-.224-.372c-.147-.244-.288-.481-.417-.7-1.064-1.776-1.673-2.8-1.673-2.8a11.179,11.179,0,0,0-2.1-2.539,10.914,10.914,0,0,0-6.116-2.725,9.283,9.283,0,0,0-2.019,2.026c-1.663,2.192-2.685,2.38-4.011,2.684,16.234,11.033,26.129,34.33,17.1,52.121.009.681-.008,1.353-.008,2.012a47.12,47.12,0,0,1-.417,4.789c-.212,1.481-.462,2.846-.75,4.045s-.577,2.237-.846,3.084-.519,1.5-.685,1.942c-.09.218-.154.385-.2.494a1.145,1.145,0,0,1-.058.122.087.087,0,0,1-.019.044v.007a.834.834,0,0,0,1.385.9.1.1,0,0,0,.032-.032c.026-.032.058-.064.1-.115.083-.109.212-.263.372-.462.321-.4.776-.987,1.314-1.776s1.18-1.744,1.846-2.891S79.7,80.727,80.4,79.233a50.131,50.131,0,0,0,2.019-4.981c.295-.91.628-1.847.878-2.827.135-.487.281-.981.4-1.487s.237-1.019.359-1.539.218-1.044.314-1.576.212-1.071.288-1.622.147-1.1.224-1.648c.032-.276.077-.558.1-.84s.051-.558.077-.84c.045-.571.09-1.14.141-1.712.019-.571.039-1.147.058-1.718C85.328,57.283,85.277,56.124,85.258,54.95Z" transform="translate(-40.826 -5.101)" fill="#0e8c4f"/><path d="M52.9,11.135A9.3,9.3,0,0,1,54.919,9.11c2.417-1.692,4.95-1.039,7.154,1.545-.551-.647-.9-1.5-1.532-2.148A6.876,6.876,0,0,0,54.977,6.25c-1.982.109-3.917,1.276-5.917,1.045a7.716,7.716,0,0,1-4.212-2.314c-.192-.186-.385-.365-.576-.551-.276-.231-.532-.481-.821-.712s-.571-.462-.865-.68-.6-.43-.91-.641-.628-.385-.943-.583c-.333-.167-.647-.353-.98-.506S39.1,1,38.758.878C38.6.814,38.431.75,38.264.692s-.334-.11-.5-.16-.327-.1-.487-.147-.334-.071-.494-.109a8.8,8.8,0,0,0-.955-.167,9.079,9.079,0,0,0-.91-.083C34.777.019,34.63,0,34.489,0s-.281.006-.416.013A11.011,11.011,0,0,0,32.6.128c-.43.077-.8.147-1.1.218-.6.173-.936.269-.936.269l.962-.122c.307-.026.68-.032,1.1-.051a11.782,11.782,0,0,1,1.417.109c.128.013.256.032.391.051s.262.058.4.083c.27.064.551.109.834.205a7.643,7.643,0,0,1,.846.3c.142.051.288.109.43.167s.282.135.43.2.282.135.43.212.276.16.416.244a9.464,9.464,0,0,1,.833.519c.276.186.539.4.808.59.25.218.519.423.763.654s.494.455.724.7.462.481.68.731.43.506.634.75.4.506.59.763c.365.506.711,1.013,1.012,1.5.065.09.122.186.174.276a4.817,4.817,0,0,1,.168,2.79,40.247,40.247,0,0,1,4.284,2.542C50.215,13.515,51.238,13.327,52.9,11.135Z" transform="translate(-30.566)" fill="#553428"/></g></g></svg>