<svg xmlns="http://www.w3.org/2000/svg" width="67.525" height="71.046" viewBox="0 0 67.525 71.046"><g transform="translate(-12.686)"><path d="M68.153,63.164a33.762,33.762,0,1,1-43.18-.191c2.933-2.419,6.282-2.956,9.923-2.888l23.14.053C61.759,60.091,65.174,60.662,68.153,63.164Z" transform="translate(0 -51.743)" fill="#f95428"/><path d="M160.983,18.675,148.42,13.563l-5.687,8.23-5.687-8.23-12.563,5.112,6.7-10.333.73-1.127L129.151,0l13.582,6.154L156.315,0l-2.759,7.215.764,1.18Z" transform="translate(-96.283)" fill="#9ad14b"/><path d="M30.089,89.027a33.642,33.642,0,0,1,9.139-23.1L28.2,70.418l6.7-10.333c-3.642-.068-6.99.469-9.923,2.888a33.771,33.771,0,0,0,30.177,58.681A33.775,33.775,0,0,1,30.089,89.027Z" transform="translate(-0.001 -51.743)" fill="#e54728"/><path d="M144.006,11.175l-1.273,10.617-5.687-8.23-12.563,5.112,6.7-10.333.73-1.127L129.151,0l13.582,6.154-3.608,3.111Z" transform="translate(-96.283)" fill="#90bc42"/></g></svg>