<svg xmlns="http://www.w3.org/2000/svg" xmlns:xlink="http://www.w3.org/1999/xlink" width="665" height="278" viewBox="0 0 665 278"><defs><linearGradient id="a" x1="-0.013" x2="1.098" y2="1.069" gradientUnits="objectBoundingBox"><stop offset="0" stop-color="#ff6768"/><stop offset="1" stop-color="#fb4275"/></linearGradient><clipPath id="b"><rect width="665" height="278" rx="10" fill="url(#a)"/></clipPath></defs><g clip-path="url(#b)"><g transform="translate(-115.177 -126.578)"><path d="M29.3-222.774c26.191,7.859,41.589,37.313,41.514,64.852-.075,27.473-15.624,53.03-23.1,77.73C40.247-55.56,40.851-31.785,29.982-11.577,19.112,8.565-3.305,25.207-30.931,37.557c-27.7,12.416-60.61,20.671-86.726,12.217-26.116-8.387-45.288-33.549-61.139-56.993-15.851-23.51-28.3-45.436-33.513-68.946-5.133-23.51-2.944-48.672,12.152-65.05,15.02-16.312,42.948-23.907,66.649-32.822s43.1-19.152,71.328-31.105S3.035-230.7,29.3-222.774Z" transform="translate(214.805 225.134)" fill="rgba(255,255,255,0.15)"/></g><g transform="translate(437.683 159.395)"><path d="M-15.2-159.245c16.275,10.079,26.858,26.839,32.752,43.834S24.52-81.189,30.481-57.924C36.442-34.6,47.225-5.183,37.38,13.51,27.6,32.2-2.806,40.174-31.339,42.108-59.8,44.042-86.327,39.881-106.956,29.45c-20.7-10.431-35.431-27.191-56.328-42.544-20.9-15.295-47.889-29.183-58.6-49.283s-5.09-46.412,7.568-69.618c12.592-23.206,32.283-43.365,56.663-50.221,24.313-6.856,53.448-.469,78.9,4.454S-31.473-169.383-15.2-159.245Z" transform="translate(227.544 185.214)" fill="rgba(255,255,255,0.15)"/></g><g transform="translate(268.901 -7.222)"><path d="M-190.346-203.135c7.863,1.634,16.883,4.5,21.6,10.1,4.7,5.6,5.088,13.931,0,19.177-5.106,5.261-15.691,7.44-21.687,12.624-5.978,5.183-7.383,13.355-12.08,16.982-4.7,3.611-12.7,2.677-21.171,1.308-8.468-1.354-17.4-3.113-23.75-7.8A24.709,24.709,0,0,1-257.5-170.385c.089-7.363,4.021-14.492,7.792-21.652,3.789-7.145,7.436-14.32,13.752-16.577s15.282.42,23.145,1.946C-204.969-205.143-198.227-204.754-190.346-203.135Z" transform="translate(257.506 209.484)" fill="rgba(255,255,255,0.15)"/></g></g></svg>